# Rhino

mtllib TB-3D_robobar-2xTV_211115.mtl
usemtl diffuse_Black
v 32.814605712890625 236.25497436523438 158.79658508300781
v 37.814605712890625 236.25497436523438 158.79658508300781
v 32.814605712890625 236.25497436523438 0.79658609628677368
v 37.814605712890625 236.25497436523438 0.79658609628677368
v 32.814605712890625 236.25497436523438 0.79658609628677368
v 37.814605712890625 236.25497436523438 0.79658609628677368
v 32.814605712890625 326.25497436523438 0.79658609628677368
v 37.814605712890625 326.25497436523438 0.79658609628677368
v 32.814605712890625 326.25497436523438 0.79658609628677368
v 37.814605712890625 326.25497436523438 0.79658609628677368
v 32.814605712890625 326.25497436523438 158.79658508300781
v 37.814605712890625 326.25497436523438 158.79658508300781
v 32.814605712890625 326.25497436523438 158.79658508300781
v 37.814605712890625 326.25497436523438 158.79658508300781
v 32.814605712890625 236.25497436523438 158.79658508300781
v 37.814605712890625 236.25497436523438 158.79658508300781
v 32.814605712890625 236.25497436523438 158.79658508300781
v 32.814605712890625 236.25497436523438 0.79658609628677368
v 32.814605712890625 326.25497436523438 0.79658609628677368
v 32.814605712890625 326.25497436523438 158.79658508300781
v 37.814605712890625 236.25497436523438 158.79658508300781
v 37.814605712890625 236.25497436523438 0.79658609628677368
v 37.814605712890625 326.25497436523438 0.79658609628677368
v 37.814605712890625 326.25497436523438 158.79658508300781
vt 0 0
vt 0 0.51351326704025269
vt 0.31854838132858276 0
vt 0.31854838132858276 0.51351326704025269
vt 0.31854838132858276 0
vt 0.31854838132858276 0.51351326704025269
vt 0.5 0
vt 0.5 0.51351326704025269
vt 0.5 0
vt 0.5 0.51351326704025269
vt 0.81854838132858276 0
vt 0.81854838132858276 0.51351326704025269
vt 0.81854838132858276 0
vt 0.81854838132858276 0.51351326704025269
vt 1 0
vt 1 0.51351326704025269
vt 0 1
vt 0.31854838132858276 1
vt 0.31854838132858276 0.51351374387741089
vt 0 0.51351374387741089
vt 0.68145161867141724 0.51351374387741089
vt 1 0.51351374387741089
vt 1 1
vt 0.68145161867141724 1
vn 0 -1 0
vn 0 -1 0
vn 0 -1 0
vn 0 -1 0
vn 0 0 -1
vn 0 0 -1
vn 0 0 -1
vn 0 0 -1
vn 0 1 0
vn 0 1 0
vn 0 1 0
vn 0 1 0
vn 0 0 1
vn 0 0 1
vn 0 0 1
vn 0 0 1
vn -1 0 0
vn -1 0 0
vn -1 0 0
vn -1 0 0
vn 1 0 0
vn 1 0 0
vn 1 0 0
vn 1 0 0
f 18/18/18 17/17/17 20/20/20 19/19/19
f 24/24/24 21/21/21 22/22/22 23/23/23
f 1/1/1 3/3/3 4/4/4 2/2/2
f 5/5/5 7/7/7 8/8/8 6/6/6
f 9/9/9 11/11/11 12/12/12 10/10/10
f 13/13/13 15/15/15 16/16/16 14/14/14
usemtl diffuse_Black
v 32.814605712890625 236.25497436523438 0.29658609628677368
v 37.814605712890625 236.25497436523438 0.29658609628677368
v 32.814605712890625 236.25497436523438 -157.70341491699219
v 37.814605712890625 236.25497436523438 -157.70341491699219
v 32.814605712890625 236.25497436523438 -157.70341491699219
v 37.814605712890625 236.25497436523438 -157.70341491699219
v 32.814605712890625 326.25497436523438 -157.70341491699219
v 37.814605712890625 326.25497436523438 -157.70341491699219
v 32.814605712890625 326.25497436523438 -157.70341491699219
v 37.814605712890625 326.25497436523438 -157.70341491699219
v 32.814605712890625 326.25497436523438 0.29658609628677368
v 37.814605712890625 326.25497436523438 0.29658609628677368
v 32.814605712890625 326.25497436523438 0.29658609628677368
v 37.814605712890625 326.25497436523438 0.29658609628677368
v 32.814605712890625 236.25497436523438 0.29658609628677368
v 37.814605712890625 236.25497436523438 0.29658609628677368
v 32.814605712890625 236.25497436523438 0.29658609628677368
v 32.814605712890625 236.25497436523438 -157.70341491699219
v 32.814605712890625 326.25497436523438 -157.70341491699219
v 32.814605712890625 326.25497436523438 0.29658609628677368
v 37.814605712890625 236.25497436523438 0.29658609628677368
v 37.814605712890625 236.25497436523438 -157.70341491699219
v 37.814605712890625 326.25497436523438 -157.70341491699219
v 37.814605712890625 326.25497436523438 0.29658609628677368
vt 0 0
vt 0 0.51351326704025269
vt 0.31854838132858276 0
vt 0.31854838132858276 0.51351326704025269
vt 0.31854838132858276 0
vt 0.31854838132858276 0.51351326704025269
vt 0.5 0
vt 0.5 0.51351326704025269
vt 0.5 0
vt 0.5 0.51351326704025269
vt 0.81854838132858276 0
vt 0.81854838132858276 0.51351326704025269
vt 0.81854838132858276 0
vt 0.81854838132858276 0.51351326704025269
vt 1 0
vt 1 0.51351326704025269
vt 0 1
vt 0.31854838132858276 1
vt 0.31854838132858276 0.51351374387741089
vt 0 0.51351374387741089
vt 0.68145161867141724 0.51351374387741089
vt 1 0.51351374387741089
vt 1 1
vt 0.68145161867141724 1
vn 0 -1 0
vn 0 -1 0
vn 0 -1 0
vn 0 -1 0
vn 0 0 -1
vn 0 0 -1
vn 0 0 -1
vn 0 0 -1
vn 0 1 0
vn 0 1 0
vn 0 1 0
vn 0 1 0
vn 0 0 1
vn 0 0 1
vn 0 0 1
vn 0 0 1
vn -1 0 0
vn -1 0 0
vn -1 0 0
vn -1 0 0
vn 1 0 0
vn 1 0 0
vn 1 0 0
vn 1 0 0
f 42/42/42 41/41/41 44/44/44 43/43/43
f 48/48/48 45/45/45 46/46/46 47/47/47
f 25/25/25 27/27/27 28/28/28 26/26/26
f 29/29/29 31/31/31 32/32/32 30/30/30
f 33/33/33 35/35/35 36/36/36 34/34/34
f 37/37/37 39/39/39 40/40/40 38/38/38
