# Rhino

mtllib TB-3D_robobar-3xTV_211115.mtl
usemtl diffuse_Black
v 33.131313323974609 226.74693298339844 160.73614501953125
v 33.131313323974609 288.7469482421875 160.73614501953125
v 33.131313323974609 226.74693298339844 53.736141204833984
v 33.131313323974609 288.7469482421875 53.736141204833984
v 33.131313323974609 226.74693298339844 53.736141204833984
v 38.131313323974609 226.74693298339844 53.736141204833984
v 33.131313323974609 226.74693298339844 160.73614501953125
v 38.131313323974609 226.74693298339844 160.73614501953125
v 33.131313323974609 288.7469482421875 53.736141204833984
v 38.131313323974609 288.7469482421875 53.736141204833984
v 33.131313323974609 226.74693298339844 53.736141204833984
v 38.131313323974609 226.74693298339844 53.736141204833984
v 33.131313323974609 288.7469482421875 160.73614501953125
v 38.131313323974609 288.7469482421875 160.73614501953125
v 33.131313323974609 288.7469482421875 53.736141204833984
v 38.131313323974609 288.7469482421875 53.736141204833984
v 33.131313323974609 226.74693298339844 160.73614501953125
v 38.131313323974609 226.74693298339844 160.73614501953125
v 33.131313323974609 288.7469482421875 160.73614501953125
v 38.131313323974609 288.7469482421875 160.73614501953125
v 38.131313323974609 226.74693298339844 160.73614501953125
v 38.131313323974609 288.7469482421875 160.73614501953125
v 38.131313323974609 226.74693298339844 53.736141204833984
v 38.131313323974609 288.7469482421875 53.736141204833984
vt 0.15748031437397003 0.4881889820098877
vt 0.15748031437397003 0.97491312026977539
vt 0.99853515625 0.4881889820098877
vt 0.99853515625 0.97491312026977539
vt 0.15601547062397003 0
vt 0.11811023950576782 0
vt 0.15601547062397003 0.84251970052719116
vt 0.11811023950576782 0.84251970052719116
vt 0.077275313436985016 0
vt 0.039370078593492508 0
vt 0.077275313436985016 0.4881889820098877
vt 0.039370078593492508 0.4881889820098877
vt 0.11664539575576782 0
vt 0.078740157186985016 0
vt 0.11664539575576782 0.84251970052719116
vt 0.078740157186985016 0.84251970052719116
vt 0.037905234843492508 0
vt 0 0
vt 0.037905234843492508 0.4881889820098877
vt 0 0.4881889820098877
vt 0.15748031437397003 0
vt 0.15748031437397003 0.4867241382598877
vt 0.99853515625 0
vt 0.99853515625 0.4867241382598877
vn -1 0 0
vn -1 0 0
vn -1 0 0
vn -1 0 0
vn 0 -1 0
vn 0 -1 0
vn 0 -1 0
vn 0 -1 0
vn 0 0 -1
vn 0 0 -1
vn 0 0 -1
vn 0 0 -1
vn 0 1 0
vn 0 1 0
vn 0 1 0
vn 0 1 0
vn 0 0 1
vn 0 0 1
vn 0 0 1
vn 0 0 1
vn 1 0 0
vn 1 0 0
vn 1 0 0
vn 1 0 0
f 2/2/2 4/4/4 3/3/3 1/1/1
f 6/6/6 8/8/8 7/7/7 5/5/5
f 10/10/10 12/12/12 11/11/11 9/9/9
f 14/14/14 16/16/16 15/15/15 13/13/13
f 18/18/18 20/20/20 19/19/19 17/17/17
f 22/22/22 21/21/21 23/23/23 24/24/24
usemtl diffuse_Black
v 33.131313323974609 226.74693298339844 53.736141204833984
v 33.131313323974609 288.7469482421875 53.736141204833984
v 33.131313323974609 226.74693298339844 -53.263858795166016
v 33.131313323974609 288.7469482421875 -53.263858795166016
v 33.131313323974609 226.74693298339844 -53.263858795166016
v 38.131313323974609 226.74693298339844 -53.263858795166016
v 33.131313323974609 226.74693298339844 53.736141204833984
v 38.131313323974609 226.74693298339844 53.736141204833984
v 33.131313323974609 288.7469482421875 -53.263858795166016
v 38.131313323974609 288.7469482421875 -53.263858795166016
v 33.131313323974609 226.74693298339844 -53.263858795166016
v 38.131313323974609 226.74693298339844 -53.263858795166016
v 33.131313323974609 288.7469482421875 53.736141204833984
v 38.131313323974609 288.7469482421875 53.736141204833984
v 33.131313323974609 288.7469482421875 -53.263858795166016
v 38.131313323974609 288.7469482421875 -53.263858795166016
v 33.131313323974609 226.74693298339844 53.736141204833984
v 38.131313323974609 226.74693298339844 53.736141204833984
v 33.131313323974609 288.7469482421875 53.736141204833984
v 38.131313323974609 288.7469482421875 53.736141204833984
v 38.131313323974609 226.74693298339844 53.736141204833984
v 38.131313323974609 288.7469482421875 53.736141204833984
v 38.131313323974609 226.74693298339844 -53.263858795166016
v 38.131313323974609 288.7469482421875 -53.263858795166016
vt 0.15748031437397003 0.4881889820098877
vt 0.15748031437397003 0.97491312026977539
vt 0.99853515625 0.4881889820098877
vt 0.99853515625 0.97491312026977539
vt 0.15601547062397003 0
vt 0.11811023950576782 0
vt 0.15601547062397003 0.84251970052719116
vt 0.11811023950576782 0.84251970052719116
vt 0.077275313436985016 0
vt 0.039370078593492508 0
vt 0.077275313436985016 0.4881889820098877
vt 0.039370078593492508 0.4881889820098877
vt 0.11664539575576782 0
vt 0.078740157186985016 0
vt 0.11664539575576782 0.84251970052719116
vt 0.078740157186985016 0.84251970052719116
vt 0.037905234843492508 0
vt 0 0
vt 0.037905234843492508 0.4881889820098877
vt 0 0.4881889820098877
vt 0.15748031437397003 0
vt 0.15748031437397003 0.4867241382598877
vt 0.99853515625 0
vt 0.99853515625 0.4867241382598877
vn -1 0 0
vn -1 0 0
vn -1 0 0
vn -1 0 0
vn 0 -1 0
vn 0 -1 0
vn 0 -1 0
vn 0 -1 0
vn 0 0 -1
vn 0 0 -1
vn 0 0 -1
vn 0 0 -1
vn 0 1 0
vn 0 1 0
vn 0 1 0
vn 0 1 0
vn 0 0 1
vn 0 0 1
vn 0 0 1
vn 0 0 1
vn 1 0 0
vn 1 0 0
vn 1 0 0
vn 1 0 0
f 26/26/26 28/28/28 27/27/27 25/25/25
f 30/30/30 32/32/32 31/31/31 29/29/29
f 34/34/34 36/36/36 35/35/35 33/33/33
f 38/38/38 40/40/40 39/39/39 37/37/37
f 42/42/42 44/44/44 43/43/43 41/41/41
f 46/46/46 45/45/45 47/47/47 48/48/48
usemtl diffuse_Black
v 33.131313323974609 226.74693298339844 -53.263858795166016
v 33.131313323974609 288.7469482421875 -53.263858795166016
v 33.131313323974609 226.74693298339844 -160.26385498046875
v 33.131313323974609 288.7469482421875 -160.26385498046875
v 33.131313323974609 226.74693298339844 -160.26385498046875
v 38.131313323974609 226.74693298339844 -160.26385498046875
v 33.131313323974609 226.74693298339844 -53.263858795166016
v 38.131313323974609 226.74693298339844 -53.263858795166016
v 33.131313323974609 288.7469482421875 -160.26385498046875
v 38.131313323974609 288.7469482421875 -160.26385498046875
v 33.131313323974609 226.74693298339844 -160.26385498046875
v 38.131313323974609 226.74693298339844 -160.26385498046875
v 33.131313323974609 288.7469482421875 -53.263858795166016
v 38.131313323974609 288.7469482421875 -53.263858795166016
v 33.131313323974609 288.7469482421875 -160.26385498046875
v 38.131313323974609 288.7469482421875 -160.26385498046875
v 33.131313323974609 226.74693298339844 -53.263858795166016
v 38.131313323974609 226.74693298339844 -53.263858795166016
v 33.131313323974609 288.7469482421875 -53.263858795166016
v 38.131313323974609 288.7469482421875 -53.263858795166016
v 38.131313323974609 226.74693298339844 -53.263858795166016
v 38.131313323974609 288.7469482421875 -53.263858795166016
v 38.131313323974609 226.74693298339844 -160.26385498046875
v 38.131313323974609 288.7469482421875 -160.26385498046875
vt 0.15748031437397003 0.4881889820098877
vt 0.15748031437397003 0.97491312026977539
vt 0.99853515625 0.4881889820098877
vt 0.99853515625 0.97491312026977539
vt 0.15601547062397003 0
vt 0.11811023950576782 0
vt 0.15601547062397003 0.84251970052719116
vt 0.11811023950576782 0.84251970052719116
vt 0.077275313436985016 0
vt 0.039370078593492508 0
vt 0.077275313436985016 0.4881889820098877
vt 0.039370078593492508 0.4881889820098877
vt 0.11664539575576782 0
vt 0.078740157186985016 0
vt 0.11664539575576782 0.84251970052719116
vt 0.078740157186985016 0.84251970052719116
vt 0.037905234843492508 0
vt 0 0
vt 0.037905234843492508 0.4881889820098877
vt 0 0.4881889820098877
vt 0.15748031437397003 0
vt 0.15748031437397003 0.4867241382598877
vt 0.99853515625 0
vt 0.99853515625 0.4867241382598877
vn -1 0 0
vn -1 0 0
vn -1 0 0
vn -1 0 0
vn 0 -1 0
vn 0 -1 0
vn 0 -1 0
vn 0 -1 0
vn 0 0 -1
vn 0 0 -1
vn 0 0 -1
vn 0 0 -1
vn 0 1 0
vn 0 1 0
vn 0 1 0
vn 0 1 0
vn 0 0 1
vn 0 0 1
vn 0 0 1
vn 0 0 1
vn 1 0 0
vn 1 0 0
vn 1 0 0
vn 1 0 0
f 50/50/50 52/52/52 51/51/51 49/49/49
f 54/54/54 56/56/56 55/55/55 53/53/53
f 58/58/58 60/60/60 59/59/59 57/57/57
f 62/62/62 64/64/64 63/63/63 61/61/61
f 66/66/66 68/68/68 67/67/67 65/65/65
f 70/70/70 69/69/69 71/71/71 72/72/72
